<mxfile host="65bd71144e">
    <diagram id="rP996pUSLcoiejgnixum" name="Страница 1">
        <mxGraphModel dx="465" dy="281" grid="1" gridSize="10" guides="1" tooltips="1" connect="1" arrows="1" fold="1" page="1" pageScale="1" pageWidth="827" pageHeight="1169" math="0" shadow="0">
            <root>
                <mxCell id="0"/>
                <mxCell id="1" parent="0"/>
                <mxCell id="45-YGvLhNpjs_9lp8ufd-7" value="" style="edgeStyle=orthogonalEdgeStyle;rounded=0;orthogonalLoop=1;jettySize=auto;html=1;" parent="1" source="45-YGvLhNpjs_9lp8ufd-1" edge="1">
                    <mxGeometry relative="1" as="geometry">
                        <mxPoint x="320" y="140" as="targetPoint"/>
                    </mxGeometry>
                </mxCell>
                <mxCell id="45-YGvLhNpjs_9lp8ufd-1" value="start" style="rounded=1;whiteSpace=wrap;html=1;" parent="1" vertex="1">
                    <mxGeometry x="260" y="40" width="120" height="60" as="geometry"/>
                </mxCell>
                <mxCell id="45-YGvLhNpjs_9lp8ufd-11" value="" style="edgeStyle=orthogonalEdgeStyle;rounded=0;orthogonalLoop=1;jettySize=auto;html=1;" parent="1" source="45-YGvLhNpjs_9lp8ufd-8" target="45-YGvLhNpjs_9lp8ufd-10" edge="1">
                    <mxGeometry relative="1" as="geometry"/>
                </mxCell>
                <mxCell id="45-YGvLhNpjs_9lp8ufd-8" value="str1= new string [7] {3,-5,r,edr,-432,ww,3456}&lt;br&gt;str2 = new string[2] {3212; :)}&lt;br&gt;i = 0" style="whiteSpace=wrap;html=1;aspect=fixed;" parent="1" vertex="1">
                    <mxGeometry x="250" y="140" width="140" height="140" as="geometry"/>
                </mxCell>
                <mxCell id="45-YGvLhNpjs_9lp8ufd-13" value="yes" style="edgeStyle=orthogonalEdgeStyle;rounded=0;orthogonalLoop=1;jettySize=auto;html=1;" parent="1" source="45-YGvLhNpjs_9lp8ufd-10" target="45-YGvLhNpjs_9lp8ufd-12" edge="1">
                    <mxGeometry relative="1" as="geometry"/>
                </mxCell>
                <mxCell id="45-YGvLhNpjs_9lp8ufd-15" value="no" style="edgeStyle=orthogonalEdgeStyle;rounded=0;orthogonalLoop=1;jettySize=auto;html=1;" parent="1" source="45-YGvLhNpjs_9lp8ufd-10" target="45-YGvLhNpjs_9lp8ufd-14" edge="1">
                    <mxGeometry relative="1" as="geometry"/>
                </mxCell>
                <mxCell id="45-YGvLhNpjs_9lp8ufd-10" value="if (i &amp;lt; 3)" style="rhombus;whiteSpace=wrap;html=1;" parent="1" vertex="1">
                    <mxGeometry x="280" y="310" width="80" height="80" as="geometry"/>
                </mxCell>
                <mxCell id="45-YGvLhNpjs_9lp8ufd-12" value="Console.WriteLine(string[i], &quot; &quot;)&lt;br&gt;i++" style="whiteSpace=wrap;html=1;" parent="1" vertex="1">
                    <mxGeometry x="235" y="450" width="170" height="40" as="geometry"/>
                </mxCell>
                <mxCell id="45-YGvLhNpjs_9lp8ufd-14" value="Print string array" style="whiteSpace=wrap;html=1;" parent="1" vertex="1">
                    <mxGeometry x="420" y="320" width="120" height="60" as="geometry"/>
                </mxCell>
            </root>
        </mxGraphModel>
    </diagram>
</mxfile>